<svg width="227" height="84" viewBox="0 0 227 84" fill="none" xmlns="http://www.w3.org/2000/svg">
<g clip-path="url(#clip0_37_89)">
<path d="M1.2793 0.385101H10.0362L23.874 21.8439C24.141 22.223 24.3599 22.6555 24.5755 23.0332C24.9131 23.6113 25.2198 24.2068 25.4945 24.8172V0.385101H34.0372V38.2219H25.2789L11.4418 16.5982C11.1871 16.214 10.9523 15.8171 10.7383 15.4089C10.3905 14.8367 10.0836 14.2405 9.81998 13.6249V38.2219H1.2793V0.385101Z" fill="#161615"/>
<path d="M94.4301 23.3035H89.7276V38.2219H80.9707V0.385101H97.4554C106.535 0.385101 111.617 4.38548 111.617 11.52C111.617 17.3036 108.319 20.4391 103.401 22.5474L112.266 38.2219H102.862L94.4301 23.3035ZM89.7276 16.1684H98.3217C101.725 16.1684 103.132 14.3858 103.132 11.845C103.132 9.3042 101.726 7.52092 98.3217 7.52092H89.7276V16.1684Z" fill="#161615"/>
<path d="M113.981 0.385101H123.224L128.305 21.4662C128.413 22.0061 128.521 22.5467 128.683 23.0866C128.9 24.0056 129.063 25.0888 129.224 25.7362L130.092 21.4115L135.386 0.385101H144.466L149.764 21.4115L150.632 25.7362C150.794 25.0875 150.956 24.0056 151.174 23.0866C151.334 22.5467 151.44 22.0061 151.551 21.4662L156.629 0.385101H165.87L155.492 38.2219H146.25L139.927 13.5202L133.602 38.2219H124.359L113.981 0.385101Z" fill="#161615"/>
<path d="M176.828 0.38443H185.044L200.448 38.2212H190.935L187.531 29.0865H174.343L170.94 38.2212H161.423L176.828 0.38443ZM177.095 21.6277H184.77L182.5 15.4656L181.959 14.0594C181.544 13.0584 181.202 12.0291 180.933 10.9794C180.554 12.1139 180.284 13.2485 179.906 14.0594L179.365 15.4656L177.095 21.6277Z" fill="#161615"/>
<path d="M214.387 38.2219H205.63V23.8435L193.036 0.38443H202.874L208.928 12.4396L209.306 13.3586C209.522 13.9533 209.738 14.6013 210.008 15.2494L210.711 13.3586L211.09 12.4396L217.143 0.38443H226.926L214.387 23.8435V38.2219Z" fill="#161615"/>
<path d="M61.9547 0.521245C58.2248 -0.362159 54.3164 -0.115663 50.7271 1.22935C54.031 2.05467 57.2715 3.11589 60.4237 4.40483C60.8553 3.08063 61.3665 1.78374 61.9547 0.521245" fill="#161615"/>
<path d="M43.848 6.91158C43.318 6.96353 42.8082 7.14157 42.3611 7.43081C42.3611 7.43081 35.3487 15.6752 39.2256 26.162C39.257 22.239 40.8274 16.6249 45.2442 13.3079C44.2925 11.5693 43.2714 8.46395 43.8507 6.90958" fill="#161615"/>
<path d="M44.5971 30.7937L43.9297 33.6635C46.3647 36.0514 49.3864 37.755 52.6899 38.6023L56.9553 37.441L53.0523 32.1472L44.5971 30.7937Z" fill="#161615"/>
<path d="M70.3664 27.6349C70.5213 28.6861 69.0804 34.0473 65.4731 36.7062C65.4731 36.7062 65.389 37.1066 65.2969 37.5738C67.6723 36.5325 69.8148 35.0254 71.5976 33.1416C73.3804 31.2578 74.7673 29.0356 75.6763 26.6065C75.6763 26.6065 72.0149 27.8565 70.3664 27.6349Z" fill="#161615"/>
<path d="M72.3161 12.4269C74.7608 14.1308 76.6115 17.0513 76.9452 18.8647C76.7586 13.9608 74.7504 9.30272 71.313 5.80035C72.4302 7.66907 73.191 10.6563 72.3141 12.4269" fill="#161615"/>
<path d="M69.7598 13.4267C67.9959 12.9595 64.5087 10.974 61.6142 8.27173C61.2805 9.19674 57.3776 13.0403 54.4951 14.7255C55.7151 15.5043 57.6926 17.8088 58.665 23.4197C60.1099 22.4853 64.1984 22.4152 68.1561 22.6989C68.096 19.9098 68.8482 15.1573 69.7578 13.4267" fill="#161615"/>
<path d="M73.7129 68.475C73.7129 78.1109 67.0216 83.9987 57.6533 83.9987C48.2851 83.9987 41.5938 78.1122 41.5938 68.475V45.899H50.2659V67.4072C50.2659 73.2422 53.4247 75.9719 57.6533 75.9719C61.882 75.9719 65.0414 73.2422 65.0414 67.4072V45.899H73.7129V68.475Z" fill="#161615"/>
<path d="M80.9694 45.899H97.4034C106.293 45.899 112.166 50.0482 112.166 58.3453C112.166 66.6423 106.293 70.7916 97.4034 70.7916H89.6983V83.6156H80.9688L80.9694 45.899ZM89.699 63.5716H97.1872C101.714 63.5716 103.437 61.3632 103.437 58.3453C103.437 55.3273 101.714 53.1195 97.1872 53.1195H89.6983L89.699 63.5716Z" fill="#161615"/>
<path d="M36.3178 74.0084C32.0885 80.7751 27.2252 84 19.2424 84C8.0348 84 0 76.3349 0 64.7569C0 53.1789 8.40521 45.5165 19.454 45.5165C27.5962 45.5165 33.4626 49.6404 35.9994 55.2445L28.8636 60.2106C26.802 55.9286 23.6299 53.4439 19.1863 53.4439C13.4247 53.4439 8.56071 57.7819 8.56071 64.7569C8.56071 71.5237 13.372 76.07 19.2391 76.07C24.049 76.07 26.9048 73.5339 29.3895 69.0389L36.3178 74.0084Z" fill="#161615"/>
</g>
<defs>
<clipPath id="clip0_37_89">
<rect width="226.926" height="84" fill="white"/>
</clipPath>
</defs>
</svg>
